%TF.GenerationSoftware,KiCad,Pcbnew,(5.1.10)-1*%
%TF.CreationDate,2021-10-31T23:54:57-05:00*%
%TF.ProjectId,File1,46696c65-312e-46b6-9963-61645f706362,rev?*%
%TF.SameCoordinates,Original*%
%TF.FileFunction,Copper,L1,Top*%
%TF.FilePolarity,Positive*%
%FSLAX46Y46*%
G04 Gerber Fmt 4.6, Leading zero omitted, Abs format (unit mm)*
G04 Created by KiCad (PCBNEW (5.1.10)-1) date 2021-10-31 23:54:57*
%MOMM*%
%LPD*%
G01*
G04 APERTURE LIST*
%TA.AperFunction,ComponentPad*%
%ADD10O,1.500000X1.050000*%
%TD*%
%TA.AperFunction,ComponentPad*%
%ADD11R,1.500000X1.050000*%
%TD*%
%TA.AperFunction,ComponentPad*%
%ADD12R,1.800000X1.800000*%
%TD*%
%TA.AperFunction,ComponentPad*%
%ADD13C,1.800000*%
%TD*%
%TA.AperFunction,ComponentPad*%
%ADD14O,1.700000X1.700000*%
%TD*%
%TA.AperFunction,ComponentPad*%
%ADD15R,1.700000X1.700000*%
%TD*%
%TA.AperFunction,ComponentPad*%
%ADD16C,1.600000*%
%TD*%
%TA.AperFunction,ComponentPad*%
%ADD17O,1.600000X1.600000*%
%TD*%
%TA.AperFunction,ComponentPad*%
%ADD18O,3.048000X1.850000*%
%TD*%
%TA.AperFunction,Conductor*%
%ADD19C,0.250000*%
%TD*%
%TA.AperFunction,Conductor*%
%ADD20C,0.254000*%
%TD*%
%TA.AperFunction,Conductor*%
%ADD21C,0.100000*%
%TD*%
G04 APERTURE END LIST*
D10*
%TO.P,Q1,2*%
%TO.N,/a1*%
X39878000Y-105156000D03*
%TO.P,Q1,3*%
%TO.N,Net-(Q1-Pad3)*%
X39878000Y-103886000D03*
D11*
%TO.P,Q1,1*%
%TO.N,GND*%
X39878000Y-106426000D03*
%TD*%
D12*
%TO.P,D1,1*%
%TO.N,Net-(D1-Pad1)*%
X39624000Y-129540000D03*
D13*
%TO.P,D1,2*%
%TO.N,VCC*%
X39624000Y-127000000D03*
%TD*%
%TO.P,D2,2*%
%TO.N,VCC*%
X51054000Y-127000000D03*
D12*
%TO.P,D2,1*%
%TO.N,Net-(D2-Pad1)*%
X51054000Y-129540000D03*
%TD*%
%TO.P,D3,1*%
%TO.N,Net-(D3-Pad1)*%
X62484000Y-129540000D03*
D13*
%TO.P,D3,2*%
%TO.N,VCC*%
X62484000Y-127000000D03*
%TD*%
D14*
%TO.P,J1,7*%
%TO.N,/S2*%
X44704000Y-82042000D03*
%TO.P,J1,6*%
%TO.N,/S1*%
X44704000Y-84582000D03*
%TO.P,J1,5*%
%TO.N,/a3*%
X44704000Y-87122000D03*
%TO.P,J1,4*%
%TO.N,/a2*%
X44704000Y-89662000D03*
%TO.P,J1,3*%
%TO.N,/a1*%
X44704000Y-92202000D03*
%TO.P,J1,2*%
%TO.N,GND*%
X44704000Y-94742000D03*
D15*
%TO.P,J1,1*%
%TO.N,VCC*%
X44704000Y-97282000D03*
%TD*%
D11*
%TO.P,Q2,1*%
%TO.N,GND*%
X51054000Y-106680000D03*
D10*
%TO.P,Q2,3*%
%TO.N,Net-(Q2-Pad3)*%
X51054000Y-104140000D03*
%TO.P,Q2,2*%
%TO.N,/a2*%
X51054000Y-105410000D03*
%TD*%
%TO.P,Q3,2*%
%TO.N,/a3*%
X62484000Y-105410000D03*
%TO.P,Q3,3*%
%TO.N,Net-(Q3-Pad3)*%
X62484000Y-104140000D03*
D11*
%TO.P,Q3,1*%
%TO.N,GND*%
X62484000Y-106680000D03*
%TD*%
D16*
%TO.P,R1,1*%
%TO.N,Net-(D1-Pad1)*%
X39370000Y-120650000D03*
D17*
%TO.P,R1,2*%
%TO.N,Net-(Q1-Pad3)*%
X39370000Y-113030000D03*
%TD*%
%TO.P,R2,2*%
%TO.N,Net-(Q2-Pad3)*%
X50800000Y-113030000D03*
D16*
%TO.P,R2,1*%
%TO.N,Net-(D2-Pad1)*%
X50800000Y-120650000D03*
%TD*%
%TO.P,R3,1*%
%TO.N,Net-(D3-Pad1)*%
X62230000Y-120650000D03*
D17*
%TO.P,R3,2*%
%TO.N,Net-(Q3-Pad3)*%
X62230000Y-113030000D03*
%TD*%
D18*
%TO.P,SW1,3*%
%TO.N,/S1*%
X69142000Y-77470000D03*
%TO.P,SW1,4*%
%TO.N,GND*%
X69142000Y-82470000D03*
%TO.P,SW1,1*%
%TO.N,Net-(SW1-Pad1)*%
X56642000Y-77470000D03*
%TO.P,SW1,2*%
%TO.N,Net-(SW1-Pad2)*%
X56642000Y-82470000D03*
%TD*%
%TO.P,SW2,2*%
%TO.N,Net-(SW2-Pad2)*%
X56642000Y-95424000D03*
%TO.P,SW2,1*%
%TO.N,Net-(SW2-Pad1)*%
X56642000Y-90424000D03*
%TO.P,SW2,4*%
%TO.N,GND*%
X69142000Y-95424000D03*
%TO.P,SW2,3*%
%TO.N,/S2*%
X69142000Y-90424000D03*
%TD*%
D19*
%TO.N,Net-(D1-Pad1)*%
X38398999Y-128314999D02*
X39624000Y-129540000D01*
X38398999Y-121621001D02*
X38398999Y-128314999D01*
X39370000Y-120650000D02*
X38398999Y-121621001D01*
%TO.N,VCC*%
X44704000Y-121920000D02*
X39624000Y-127000000D01*
X44704000Y-97282000D02*
X44704000Y-121920000D01*
X45974000Y-121920000D02*
X44704000Y-121920000D01*
X51054000Y-127000000D02*
X45974000Y-121920000D01*
X51054000Y-127000000D02*
X62484000Y-127000000D01*
%TO.N,Net-(D2-Pad1)*%
X57947002Y-120650000D02*
X50800000Y-120650000D01*
X63709001Y-127588001D02*
X63709001Y-126411999D01*
X52368999Y-128225001D02*
X63072001Y-128225001D01*
X63709001Y-126411999D02*
X57947002Y-120650000D01*
X63072001Y-128225001D02*
X63709001Y-127588001D01*
X51054000Y-129540000D02*
X52368999Y-128225001D01*
%TO.N,Net-(D3-Pad1)*%
X64159010Y-122579010D02*
X62230000Y-120650000D01*
X64159010Y-127864990D02*
X64159010Y-122579010D01*
X62484000Y-129540000D02*
X64159010Y-127864990D01*
%TO.N,GND*%
X43528999Y-95917001D02*
X44704000Y-94742000D01*
X43528999Y-103775001D02*
X43528999Y-95917001D01*
X40878000Y-106426000D02*
X43528999Y-103775001D01*
X39878000Y-106426000D02*
X40878000Y-106426000D01*
X50054000Y-106680000D02*
X51054000Y-106680000D01*
X45879001Y-95917001D02*
X45879001Y-102505001D01*
X45879001Y-102505001D02*
X50054000Y-106680000D01*
X44704000Y-94742000D02*
X45879001Y-95917001D01*
X50259999Y-114155001D02*
X55008999Y-114155001D01*
X49674999Y-113570001D02*
X50259999Y-114155001D01*
X49674999Y-108059001D02*
X49674999Y-113570001D01*
X55008999Y-114155001D02*
X62484000Y-106680000D01*
X51054000Y-106680000D02*
X49674999Y-108059001D01*
X67292990Y-93574990D02*
X69142000Y-95424000D01*
X67292990Y-84319010D02*
X67292990Y-93574990D01*
X69142000Y-82470000D02*
X67292990Y-84319010D01*
X61104999Y-108059001D02*
X62484000Y-106680000D01*
X61104999Y-113570001D02*
X61104999Y-108059001D01*
X61689999Y-114155001D02*
X61104999Y-113570001D01*
X69142000Y-107783002D02*
X62770001Y-114155001D01*
X62770001Y-114155001D02*
X61689999Y-114155001D01*
X69142000Y-95424000D02*
X69142000Y-107783002D01*
%TO.N,/a1*%
X41511590Y-95394410D02*
X44704000Y-92202000D01*
X41511590Y-104522410D02*
X41511590Y-95394410D01*
X40878000Y-105156000D02*
X41511590Y-104522410D01*
X39878000Y-105156000D02*
X40878000Y-105156000D01*
%TO.N,/a2*%
X46329011Y-91287011D02*
X44704000Y-89662000D01*
X46329011Y-100842106D02*
X46329011Y-91287011D01*
X50476915Y-104990010D02*
X46329011Y-100842106D01*
X50888010Y-104990010D02*
X50476915Y-104990010D01*
X51054000Y-105156000D02*
X50888010Y-104990010D01*
X51054000Y-105410000D02*
X51054000Y-105156000D01*
%TO.N,/a3*%
X61408990Y-104492085D02*
X62326905Y-105410000D01*
X62326905Y-105410000D02*
X62484000Y-105410000D01*
X61408990Y-92824209D02*
X61408990Y-104492085D01*
X55706781Y-87122000D02*
X61408990Y-92824209D01*
X44704000Y-87122000D02*
X55706781Y-87122000D01*
%TO.N,/S1*%
X62030000Y-84582000D02*
X69142000Y-77470000D01*
X44704000Y-84582000D02*
X62030000Y-84582000D01*
%TO.N,/S2*%
X70991010Y-76952229D02*
X70991010Y-88574990D01*
X70258771Y-76219990D02*
X70991010Y-76952229D01*
X70991010Y-88574990D02*
X69142000Y-90424000D01*
X50526010Y-76219990D02*
X70258771Y-76219990D01*
X44704000Y-82042000D02*
X50526010Y-76219990D01*
%TO.N,Net-(Q1-Pad3)*%
X39720905Y-103886000D02*
X39878000Y-103886000D01*
X38570001Y-112230001D02*
X38570001Y-105036904D01*
X38570001Y-105036904D02*
X39720905Y-103886000D01*
X39370000Y-113030000D02*
X38570001Y-112230001D01*
%TO.N,Net-(Q2-Pad3)*%
X52129010Y-111700990D02*
X50800000Y-113030000D01*
X52129010Y-104215010D02*
X52129010Y-111700990D01*
X52054000Y-104140000D02*
X52129010Y-104215010D01*
X51054000Y-104140000D02*
X52054000Y-104140000D01*
%TO.N,Net-(Q3-Pad3)*%
X63559001Y-111700999D02*
X62230000Y-113030000D01*
X63559001Y-104215001D02*
X63559001Y-111700999D01*
X63484000Y-104140000D02*
X63559001Y-104215001D01*
X62484000Y-104140000D02*
X63484000Y-104140000D01*
%TD*%
D20*
%TO.N,GND*%
X75540000Y-136500000D02*
X31140000Y-136500000D01*
X31140000Y-121621001D01*
X37635323Y-121621001D01*
X37638999Y-121658324D01*
X37639000Y-128277667D01*
X37635323Y-128314999D01*
X37649997Y-128463984D01*
X37693453Y-128607245D01*
X37764025Y-128739275D01*
X37804670Y-128788800D01*
X37858999Y-128855000D01*
X37887997Y-128878798D01*
X38085928Y-129076729D01*
X38085928Y-130440000D01*
X38098188Y-130564482D01*
X38134498Y-130684180D01*
X38193463Y-130794494D01*
X38272815Y-130891185D01*
X38369506Y-130970537D01*
X38479820Y-131029502D01*
X38599518Y-131065812D01*
X38724000Y-131078072D01*
X40524000Y-131078072D01*
X40648482Y-131065812D01*
X40768180Y-131029502D01*
X40878494Y-130970537D01*
X40975185Y-130891185D01*
X41054537Y-130794494D01*
X41113502Y-130684180D01*
X41149812Y-130564482D01*
X41162072Y-130440000D01*
X41162072Y-128640000D01*
X41149812Y-128515518D01*
X41113502Y-128395820D01*
X41054537Y-128285506D01*
X40975185Y-128188815D01*
X40878494Y-128109463D01*
X40768180Y-128050498D01*
X40749873Y-128044944D01*
X40816312Y-127978505D01*
X40984299Y-127727095D01*
X41100011Y-127447743D01*
X41159000Y-127151184D01*
X41159000Y-126848816D01*
X41107731Y-126591070D01*
X45018802Y-122680000D01*
X45659199Y-122680000D01*
X49570269Y-126591070D01*
X49519000Y-126848816D01*
X49519000Y-127151184D01*
X49577989Y-127447743D01*
X49693701Y-127727095D01*
X49861688Y-127978505D01*
X49928127Y-128044944D01*
X49909820Y-128050498D01*
X49799506Y-128109463D01*
X49702815Y-128188815D01*
X49623463Y-128285506D01*
X49564498Y-128395820D01*
X49528188Y-128515518D01*
X49515928Y-128640000D01*
X49515928Y-130440000D01*
X49528188Y-130564482D01*
X49564498Y-130684180D01*
X49623463Y-130794494D01*
X49702815Y-130891185D01*
X49799506Y-130970537D01*
X49909820Y-131029502D01*
X50029518Y-131065812D01*
X50154000Y-131078072D01*
X51954000Y-131078072D01*
X52078482Y-131065812D01*
X52198180Y-131029502D01*
X52308494Y-130970537D01*
X52405185Y-130891185D01*
X52484537Y-130794494D01*
X52543502Y-130684180D01*
X52579812Y-130564482D01*
X52592072Y-130440000D01*
X52592072Y-129076731D01*
X52683802Y-128985001D01*
X60945928Y-128985001D01*
X60945928Y-130440000D01*
X60958188Y-130564482D01*
X60994498Y-130684180D01*
X61053463Y-130794494D01*
X61132815Y-130891185D01*
X61229506Y-130970537D01*
X61339820Y-131029502D01*
X61459518Y-131065812D01*
X61584000Y-131078072D01*
X63384000Y-131078072D01*
X63508482Y-131065812D01*
X63628180Y-131029502D01*
X63738494Y-130970537D01*
X63835185Y-130891185D01*
X63914537Y-130794494D01*
X63973502Y-130684180D01*
X64009812Y-130564482D01*
X64022072Y-130440000D01*
X64022072Y-129076730D01*
X64670014Y-128428788D01*
X64699011Y-128404991D01*
X64793984Y-128289266D01*
X64864556Y-128157237D01*
X64908013Y-128013976D01*
X64919010Y-127902323D01*
X64919010Y-127902313D01*
X64922686Y-127864990D01*
X64919010Y-127827667D01*
X64919010Y-122616332D01*
X64922686Y-122579009D01*
X64919010Y-122541686D01*
X64919010Y-122541677D01*
X64908013Y-122430024D01*
X64864556Y-122286763D01*
X64824726Y-122212247D01*
X64793984Y-122154733D01*
X64722809Y-122068007D01*
X64699011Y-122039009D01*
X64670013Y-122015211D01*
X63628688Y-120973886D01*
X63665000Y-120791335D01*
X63665000Y-120508665D01*
X63609853Y-120231426D01*
X63501680Y-119970273D01*
X63344637Y-119735241D01*
X63144759Y-119535363D01*
X62909727Y-119378320D01*
X62648574Y-119270147D01*
X62371335Y-119215000D01*
X62088665Y-119215000D01*
X61811426Y-119270147D01*
X61550273Y-119378320D01*
X61315241Y-119535363D01*
X61115363Y-119735241D01*
X60958320Y-119970273D01*
X60850147Y-120231426D01*
X60795000Y-120508665D01*
X60795000Y-120791335D01*
X60850147Y-121068574D01*
X60958320Y-121329727D01*
X61115363Y-121564759D01*
X61315241Y-121764637D01*
X61550273Y-121921680D01*
X61811426Y-122029853D01*
X62088665Y-122085000D01*
X62371335Y-122085000D01*
X62553886Y-122048688D01*
X63399011Y-122893813D01*
X63399011Y-125027207D01*
X58510806Y-120139003D01*
X58487003Y-120109999D01*
X58371278Y-120015026D01*
X58239249Y-119944454D01*
X58095988Y-119900997D01*
X57984335Y-119890000D01*
X57984324Y-119890000D01*
X57947002Y-119886324D01*
X57909680Y-119890000D01*
X52018043Y-119890000D01*
X51914637Y-119735241D01*
X51714759Y-119535363D01*
X51479727Y-119378320D01*
X51218574Y-119270147D01*
X50941335Y-119215000D01*
X50658665Y-119215000D01*
X50381426Y-119270147D01*
X50120273Y-119378320D01*
X49885241Y-119535363D01*
X49685363Y-119735241D01*
X49528320Y-119970273D01*
X49420147Y-120231426D01*
X49365000Y-120508665D01*
X49365000Y-120791335D01*
X49420147Y-121068574D01*
X49528320Y-121329727D01*
X49685363Y-121564759D01*
X49885241Y-121764637D01*
X50120273Y-121921680D01*
X50381426Y-122029853D01*
X50658665Y-122085000D01*
X50941335Y-122085000D01*
X51218574Y-122029853D01*
X51479727Y-121921680D01*
X51714759Y-121764637D01*
X51914637Y-121564759D01*
X52018043Y-121410000D01*
X57632201Y-121410000D01*
X61831148Y-125608948D01*
X61756905Y-125639701D01*
X61505495Y-125807688D01*
X61291688Y-126021495D01*
X61145687Y-126240000D01*
X52392313Y-126240000D01*
X52246312Y-126021495D01*
X52032505Y-125807688D01*
X51781095Y-125639701D01*
X51501743Y-125523989D01*
X51205184Y-125465000D01*
X50902816Y-125465000D01*
X50645070Y-125516269D01*
X46537804Y-121409003D01*
X46514001Y-121379999D01*
X46398276Y-121285026D01*
X46266247Y-121214454D01*
X46122986Y-121170997D01*
X46011333Y-121160000D01*
X46011322Y-121160000D01*
X45974000Y-121156324D01*
X45936678Y-121160000D01*
X45464000Y-121160000D01*
X45464000Y-107205000D01*
X49665928Y-107205000D01*
X49678188Y-107329482D01*
X49714498Y-107449180D01*
X49773463Y-107559494D01*
X49852815Y-107656185D01*
X49949506Y-107735537D01*
X50059820Y-107794502D01*
X50179518Y-107830812D01*
X50304000Y-107843072D01*
X50768250Y-107840000D01*
X50927000Y-107681250D01*
X50927000Y-106807000D01*
X49827750Y-106807000D01*
X49669000Y-106965750D01*
X49665928Y-107205000D01*
X45464000Y-107205000D01*
X45464000Y-98770072D01*
X45554000Y-98770072D01*
X45569011Y-98768594D01*
X45569011Y-100804784D01*
X45565335Y-100842106D01*
X45569011Y-100879428D01*
X45569011Y-100879438D01*
X45580008Y-100991091D01*
X45623465Y-101134352D01*
X45694037Y-101266382D01*
X45733882Y-101314932D01*
X45789010Y-101382107D01*
X45818014Y-101405910D01*
X49677619Y-105265515D01*
X49663388Y-105410000D01*
X49685785Y-105637400D01*
X49749093Y-105846098D01*
X49714498Y-105910820D01*
X49678188Y-106030518D01*
X49665928Y-106155000D01*
X49669000Y-106394250D01*
X49827750Y-106553000D01*
X50600891Y-106553000D01*
X50601600Y-106553215D01*
X50772021Y-106570000D01*
X51201000Y-106570000D01*
X51201000Y-106807000D01*
X51181000Y-106807000D01*
X51181000Y-107681250D01*
X51339750Y-107840000D01*
X51369010Y-107840194D01*
X51369011Y-111386187D01*
X51123886Y-111631312D01*
X50941335Y-111595000D01*
X50658665Y-111595000D01*
X50381426Y-111650147D01*
X50120273Y-111758320D01*
X49885241Y-111915363D01*
X49685363Y-112115241D01*
X49528320Y-112350273D01*
X49420147Y-112611426D01*
X49365000Y-112888665D01*
X49365000Y-113171335D01*
X49420147Y-113448574D01*
X49528320Y-113709727D01*
X49685363Y-113944759D01*
X49885241Y-114144637D01*
X50120273Y-114301680D01*
X50381426Y-114409853D01*
X50658665Y-114465000D01*
X50941335Y-114465000D01*
X51218574Y-114409853D01*
X51479727Y-114301680D01*
X51714759Y-114144637D01*
X51914637Y-113944759D01*
X52071680Y-113709727D01*
X52179853Y-113448574D01*
X52235000Y-113171335D01*
X52235000Y-112888665D01*
X52198688Y-112706114D01*
X52640013Y-112264789D01*
X52669011Y-112240991D01*
X52695342Y-112208907D01*
X52763984Y-112125267D01*
X52834556Y-111993237D01*
X52858178Y-111915363D01*
X52878013Y-111849976D01*
X52889010Y-111738323D01*
X52889010Y-111738313D01*
X52892686Y-111700990D01*
X52889010Y-111663667D01*
X52889010Y-107205000D01*
X61095928Y-107205000D01*
X61108188Y-107329482D01*
X61144498Y-107449180D01*
X61203463Y-107559494D01*
X61282815Y-107656185D01*
X61379506Y-107735537D01*
X61489820Y-107794502D01*
X61609518Y-107830812D01*
X61734000Y-107843072D01*
X62198250Y-107840000D01*
X62357000Y-107681250D01*
X62357000Y-106807000D01*
X61257750Y-106807000D01*
X61099000Y-106965750D01*
X61095928Y-107205000D01*
X52889010Y-107205000D01*
X52889010Y-104252332D01*
X52892686Y-104215009D01*
X52889010Y-104177687D01*
X52889010Y-104177677D01*
X52878013Y-104066024D01*
X52834556Y-103922763D01*
X52763984Y-103790734D01*
X52669011Y-103675009D01*
X52640008Y-103651207D01*
X52617804Y-103629003D01*
X52594001Y-103599999D01*
X52478276Y-103505026D01*
X52346247Y-103434454D01*
X52202986Y-103390997D01*
X52161588Y-103386920D01*
X52103212Y-103315788D01*
X51926579Y-103170829D01*
X51725060Y-103063115D01*
X51506400Y-102996785D01*
X51335979Y-102980000D01*
X50772021Y-102980000D01*
X50601600Y-102996785D01*
X50382940Y-103063115D01*
X50181421Y-103170829D01*
X50004788Y-103315788D01*
X49947410Y-103385703D01*
X47089011Y-100527305D01*
X47089011Y-95424000D01*
X54475452Y-95424000D01*
X54505572Y-95729813D01*
X54594774Y-96023875D01*
X54739631Y-96294883D01*
X54934576Y-96532424D01*
X55172117Y-96727369D01*
X55443125Y-96872226D01*
X55737187Y-96961428D01*
X55966364Y-96984000D01*
X57317636Y-96984000D01*
X57546813Y-96961428D01*
X57840875Y-96872226D01*
X58111883Y-96727369D01*
X58349424Y-96532424D01*
X58544369Y-96294883D01*
X58689226Y-96023875D01*
X58778428Y-95729813D01*
X58808548Y-95424000D01*
X58778428Y-95118187D01*
X58689226Y-94824125D01*
X58544369Y-94553117D01*
X58349424Y-94315576D01*
X58111883Y-94120631D01*
X57840875Y-93975774D01*
X57546813Y-93886572D01*
X57317636Y-93864000D01*
X55966364Y-93864000D01*
X55737187Y-93886572D01*
X55443125Y-93975774D01*
X55172117Y-94120631D01*
X54934576Y-94315576D01*
X54739631Y-94553117D01*
X54594774Y-94824125D01*
X54505572Y-95118187D01*
X54475452Y-95424000D01*
X47089011Y-95424000D01*
X47089011Y-91324344D01*
X47092688Y-91287011D01*
X47078014Y-91138025D01*
X47034557Y-90994764D01*
X46963985Y-90862735D01*
X46892810Y-90776008D01*
X46869012Y-90747010D01*
X46840014Y-90723212D01*
X46145210Y-90028408D01*
X46189000Y-89808260D01*
X46189000Y-89515740D01*
X46131932Y-89228842D01*
X46019990Y-88958589D01*
X45857475Y-88715368D01*
X45650632Y-88508525D01*
X45476240Y-88392000D01*
X45650632Y-88275475D01*
X45857475Y-88068632D01*
X45982178Y-87882000D01*
X55391980Y-87882000D01*
X56373980Y-88864000D01*
X55966364Y-88864000D01*
X55737187Y-88886572D01*
X55443125Y-88975774D01*
X55172117Y-89120631D01*
X54934576Y-89315576D01*
X54739631Y-89553117D01*
X54594774Y-89824125D01*
X54505572Y-90118187D01*
X54475452Y-90424000D01*
X54505572Y-90729813D01*
X54594774Y-91023875D01*
X54739631Y-91294883D01*
X54934576Y-91532424D01*
X55172117Y-91727369D01*
X55443125Y-91872226D01*
X55737187Y-91961428D01*
X55966364Y-91984000D01*
X57317636Y-91984000D01*
X57546813Y-91961428D01*
X57840875Y-91872226D01*
X58111883Y-91727369D01*
X58349424Y-91532424D01*
X58544369Y-91294883D01*
X58635106Y-91125126D01*
X60648990Y-93139011D01*
X60648991Y-104454753D01*
X60645314Y-104492085D01*
X60648991Y-104529418D01*
X60659988Y-104641071D01*
X60669187Y-104671395D01*
X60703444Y-104784331D01*
X60774016Y-104916361D01*
X60845191Y-105003087D01*
X60868990Y-105032086D01*
X60897988Y-105055884D01*
X61107619Y-105265515D01*
X61093388Y-105410000D01*
X61115785Y-105637400D01*
X61179093Y-105846098D01*
X61144498Y-105910820D01*
X61108188Y-106030518D01*
X61095928Y-106155000D01*
X61099000Y-106394250D01*
X61257750Y-106553000D01*
X62030891Y-106553000D01*
X62031600Y-106553215D01*
X62202021Y-106570000D01*
X62631000Y-106570000D01*
X62631000Y-106807000D01*
X62611000Y-106807000D01*
X62611000Y-107681250D01*
X62769750Y-107840000D01*
X62799001Y-107840194D01*
X62799002Y-111386196D01*
X62553886Y-111631312D01*
X62371335Y-111595000D01*
X62088665Y-111595000D01*
X61811426Y-111650147D01*
X61550273Y-111758320D01*
X61315241Y-111915363D01*
X61115363Y-112115241D01*
X60958320Y-112350273D01*
X60850147Y-112611426D01*
X60795000Y-112888665D01*
X60795000Y-113171335D01*
X60850147Y-113448574D01*
X60958320Y-113709727D01*
X61115363Y-113944759D01*
X61315241Y-114144637D01*
X61550273Y-114301680D01*
X61811426Y-114409853D01*
X62088665Y-114465000D01*
X62371335Y-114465000D01*
X62648574Y-114409853D01*
X62909727Y-114301680D01*
X63144759Y-114144637D01*
X63344637Y-113944759D01*
X63501680Y-113709727D01*
X63609853Y-113448574D01*
X63665000Y-113171335D01*
X63665000Y-112888665D01*
X63628688Y-112706114D01*
X64070004Y-112264798D01*
X64099002Y-112241000D01*
X64193975Y-112125275D01*
X64264547Y-111993246D01*
X64308004Y-111849985D01*
X64319001Y-111738332D01*
X64319001Y-111738323D01*
X64322677Y-111701000D01*
X64319001Y-111663677D01*
X64319001Y-104252323D01*
X64322677Y-104215000D01*
X64319001Y-104177677D01*
X64319001Y-104177668D01*
X64308004Y-104066015D01*
X64264547Y-103922754D01*
X64193975Y-103790725D01*
X64099002Y-103675000D01*
X64070003Y-103651201D01*
X64047802Y-103629000D01*
X64024001Y-103599999D01*
X63908276Y-103505026D01*
X63776247Y-103434454D01*
X63632986Y-103390997D01*
X63591588Y-103386920D01*
X63533212Y-103315788D01*
X63356579Y-103170829D01*
X63155060Y-103063115D01*
X62936400Y-102996785D01*
X62765979Y-102980000D01*
X62202021Y-102980000D01*
X62168990Y-102983253D01*
X62168990Y-95792664D01*
X67027188Y-95792664D01*
X67053147Y-95903655D01*
X67175350Y-96185094D01*
X67350111Y-96437285D01*
X67570714Y-96650536D01*
X67828681Y-96816652D01*
X68114099Y-96929249D01*
X68416000Y-96984000D01*
X69015000Y-96984000D01*
X69015000Y-95551000D01*
X69269000Y-95551000D01*
X69269000Y-96984000D01*
X69868000Y-96984000D01*
X70169901Y-96929249D01*
X70455319Y-96816652D01*
X70713286Y-96650536D01*
X70933889Y-96437285D01*
X71108650Y-96185094D01*
X71230853Y-95903655D01*
X71256812Y-95792664D01*
X71136483Y-95551000D01*
X69269000Y-95551000D01*
X69015000Y-95551000D01*
X67147517Y-95551000D01*
X67027188Y-95792664D01*
X62168990Y-95792664D01*
X62168990Y-95055336D01*
X67027188Y-95055336D01*
X67147517Y-95297000D01*
X69015000Y-95297000D01*
X69015000Y-93864000D01*
X69269000Y-93864000D01*
X69269000Y-95297000D01*
X71136483Y-95297000D01*
X71256812Y-95055336D01*
X71230853Y-94944345D01*
X71108650Y-94662906D01*
X70933889Y-94410715D01*
X70713286Y-94197464D01*
X70455319Y-94031348D01*
X70169901Y-93918751D01*
X69868000Y-93864000D01*
X69269000Y-93864000D01*
X69015000Y-93864000D01*
X68416000Y-93864000D01*
X68114099Y-93918751D01*
X67828681Y-94031348D01*
X67570714Y-94197464D01*
X67350111Y-94410715D01*
X67175350Y-94662906D01*
X67053147Y-94944345D01*
X67027188Y-95055336D01*
X62168990Y-95055336D01*
X62168990Y-92861531D01*
X62172666Y-92824208D01*
X62168990Y-92786885D01*
X62168990Y-92786876D01*
X62157993Y-92675223D01*
X62114536Y-92531962D01*
X62043964Y-92399933D01*
X61948991Y-92284208D01*
X61919994Y-92260411D01*
X56270585Y-86611003D01*
X56246782Y-86581999D01*
X56131057Y-86487026D01*
X55999028Y-86416454D01*
X55855767Y-86372997D01*
X55744114Y-86362000D01*
X55744103Y-86362000D01*
X55706781Y-86358324D01*
X55669459Y-86362000D01*
X45982178Y-86362000D01*
X45857475Y-86175368D01*
X45650632Y-85968525D01*
X45476240Y-85852000D01*
X45650632Y-85735475D01*
X45857475Y-85528632D01*
X45982178Y-85342000D01*
X61992678Y-85342000D01*
X62030000Y-85345676D01*
X62067322Y-85342000D01*
X62067333Y-85342000D01*
X62178986Y-85331003D01*
X62322247Y-85287546D01*
X62454276Y-85216974D01*
X62570001Y-85122001D01*
X62593804Y-85092997D01*
X64848137Y-82838664D01*
X67027188Y-82838664D01*
X67053147Y-82949655D01*
X67175350Y-83231094D01*
X67350111Y-83483285D01*
X67570714Y-83696536D01*
X67828681Y-83862652D01*
X68114099Y-83975249D01*
X68416000Y-84030000D01*
X69015000Y-84030000D01*
X69015000Y-82597000D01*
X67147517Y-82597000D01*
X67027188Y-82838664D01*
X64848137Y-82838664D01*
X65585465Y-82101336D01*
X67027188Y-82101336D01*
X67147517Y-82343000D01*
X69015000Y-82343000D01*
X69015000Y-80910000D01*
X68416000Y-80910000D01*
X68114099Y-80964751D01*
X67828681Y-81077348D01*
X67570714Y-81243464D01*
X67350111Y-81456715D01*
X67175350Y-81708906D01*
X67053147Y-81990345D01*
X67027188Y-82101336D01*
X65585465Y-82101336D01*
X68656802Y-79030000D01*
X69817636Y-79030000D01*
X70046813Y-79007428D01*
X70231010Y-78951553D01*
X70231010Y-80988859D01*
X70169901Y-80964751D01*
X69868000Y-80910000D01*
X69269000Y-80910000D01*
X69269000Y-82343000D01*
X69289000Y-82343000D01*
X69289000Y-82597000D01*
X69269000Y-82597000D01*
X69269000Y-84030000D01*
X69868000Y-84030000D01*
X70169901Y-83975249D01*
X70231011Y-83951141D01*
X70231011Y-88260187D01*
X69627198Y-88864000D01*
X68466364Y-88864000D01*
X68237187Y-88886572D01*
X67943125Y-88975774D01*
X67672117Y-89120631D01*
X67434576Y-89315576D01*
X67239631Y-89553117D01*
X67094774Y-89824125D01*
X67005572Y-90118187D01*
X66975452Y-90424000D01*
X67005572Y-90729813D01*
X67094774Y-91023875D01*
X67239631Y-91294883D01*
X67434576Y-91532424D01*
X67672117Y-91727369D01*
X67943125Y-91872226D01*
X68237187Y-91961428D01*
X68466364Y-91984000D01*
X69817636Y-91984000D01*
X70046813Y-91961428D01*
X70340875Y-91872226D01*
X70611883Y-91727369D01*
X70849424Y-91532424D01*
X71044369Y-91294883D01*
X71189226Y-91023875D01*
X71278428Y-90729813D01*
X71308548Y-90424000D01*
X71278428Y-90118187D01*
X71189226Y-89824125D01*
X71059457Y-89581345D01*
X71502013Y-89138789D01*
X71531011Y-89114991D01*
X71557342Y-89082907D01*
X71625984Y-88999267D01*
X71696556Y-88867237D01*
X71697538Y-88864000D01*
X71740013Y-88723976D01*
X71751010Y-88612323D01*
X71751010Y-88612313D01*
X71754686Y-88574991D01*
X71751010Y-88537668D01*
X71751010Y-76989551D01*
X71754686Y-76952228D01*
X71751010Y-76914905D01*
X71751010Y-76914896D01*
X71740013Y-76803243D01*
X71696556Y-76659982D01*
X71625984Y-76527953D01*
X71531011Y-76412228D01*
X71502014Y-76388431D01*
X70822574Y-75708992D01*
X70798772Y-75679989D01*
X70683047Y-75585016D01*
X70551018Y-75514444D01*
X70407757Y-75470987D01*
X70296104Y-75459990D01*
X70296093Y-75459990D01*
X70258771Y-75456314D01*
X70221449Y-75459990D01*
X50563343Y-75459990D01*
X50526010Y-75456313D01*
X50488677Y-75459990D01*
X50377024Y-75470987D01*
X50233763Y-75514444D01*
X50101734Y-75585016D01*
X49986009Y-75679989D01*
X49962211Y-75708987D01*
X45070408Y-80600791D01*
X44850260Y-80557000D01*
X44557740Y-80557000D01*
X44270842Y-80614068D01*
X44000589Y-80726010D01*
X43757368Y-80888525D01*
X43550525Y-81095368D01*
X43388010Y-81338589D01*
X43276068Y-81608842D01*
X43219000Y-81895740D01*
X43219000Y-82188260D01*
X43276068Y-82475158D01*
X43388010Y-82745411D01*
X43550525Y-82988632D01*
X43757368Y-83195475D01*
X43931760Y-83312000D01*
X43757368Y-83428525D01*
X43550525Y-83635368D01*
X43388010Y-83878589D01*
X43276068Y-84148842D01*
X43219000Y-84435740D01*
X43219000Y-84728260D01*
X43276068Y-85015158D01*
X43388010Y-85285411D01*
X43550525Y-85528632D01*
X43757368Y-85735475D01*
X43931760Y-85852000D01*
X43757368Y-85968525D01*
X43550525Y-86175368D01*
X43388010Y-86418589D01*
X43276068Y-86688842D01*
X43219000Y-86975740D01*
X43219000Y-87268260D01*
X43276068Y-87555158D01*
X43388010Y-87825411D01*
X43550525Y-88068632D01*
X43757368Y-88275475D01*
X43931760Y-88392000D01*
X43757368Y-88508525D01*
X43550525Y-88715368D01*
X43388010Y-88958589D01*
X43276068Y-89228842D01*
X43219000Y-89515740D01*
X43219000Y-89808260D01*
X43276068Y-90095158D01*
X43388010Y-90365411D01*
X43550525Y-90608632D01*
X43757368Y-90815475D01*
X43931760Y-90932000D01*
X43757368Y-91048525D01*
X43550525Y-91255368D01*
X43388010Y-91498589D01*
X43276068Y-91768842D01*
X43219000Y-92055740D01*
X43219000Y-92348260D01*
X43262790Y-92568408D01*
X41000588Y-94830611D01*
X40971590Y-94854409D01*
X40947792Y-94883407D01*
X40947791Y-94883408D01*
X40876616Y-94970134D01*
X40806044Y-95102164D01*
X40762588Y-95245425D01*
X40747914Y-95394410D01*
X40751591Y-95431742D01*
X40751590Y-102917659D01*
X40750579Y-102916829D01*
X40549060Y-102809115D01*
X40330400Y-102742785D01*
X40159979Y-102726000D01*
X39596021Y-102726000D01*
X39425600Y-102742785D01*
X39206940Y-102809115D01*
X39005421Y-102916829D01*
X38828788Y-103061788D01*
X38683829Y-103238421D01*
X38576115Y-103439940D01*
X38509785Y-103658600D01*
X38487388Y-103886000D01*
X38501619Y-104030485D01*
X38058999Y-104473105D01*
X38030001Y-104496903D01*
X38006203Y-104525901D01*
X38006202Y-104525902D01*
X37935027Y-104612628D01*
X37864455Y-104744658D01*
X37820999Y-104887919D01*
X37806325Y-105036904D01*
X37810002Y-105074236D01*
X37810001Y-112192678D01*
X37806325Y-112230001D01*
X37810001Y-112267323D01*
X37810001Y-112267333D01*
X37820998Y-112378986D01*
X37863469Y-112518996D01*
X37864455Y-112522247D01*
X37935027Y-112654277D01*
X37972533Y-112699977D01*
X37935000Y-112888665D01*
X37935000Y-113171335D01*
X37990147Y-113448574D01*
X38098320Y-113709727D01*
X38255363Y-113944759D01*
X38455241Y-114144637D01*
X38690273Y-114301680D01*
X38951426Y-114409853D01*
X39228665Y-114465000D01*
X39511335Y-114465000D01*
X39788574Y-114409853D01*
X40049727Y-114301680D01*
X40284759Y-114144637D01*
X40484637Y-113944759D01*
X40641680Y-113709727D01*
X40749853Y-113448574D01*
X40805000Y-113171335D01*
X40805000Y-112888665D01*
X40749853Y-112611426D01*
X40641680Y-112350273D01*
X40484637Y-112115241D01*
X40284759Y-111915363D01*
X40049727Y-111758320D01*
X39788574Y-111650147D01*
X39511335Y-111595000D01*
X39330001Y-111595000D01*
X39330001Y-107587735D01*
X39592250Y-107586000D01*
X39751000Y-107427250D01*
X39751000Y-106553000D01*
X40005000Y-106553000D01*
X40005000Y-107427250D01*
X40163750Y-107586000D01*
X40628000Y-107589072D01*
X40752482Y-107576812D01*
X40872180Y-107540502D01*
X40982494Y-107481537D01*
X41079185Y-107402185D01*
X41158537Y-107305494D01*
X41217502Y-107195180D01*
X41253812Y-107075482D01*
X41266072Y-106951000D01*
X41263000Y-106711750D01*
X41104250Y-106553000D01*
X40005000Y-106553000D01*
X39751000Y-106553000D01*
X39731000Y-106553000D01*
X39731000Y-106316000D01*
X40159979Y-106316000D01*
X40330400Y-106299215D01*
X40331109Y-106299000D01*
X41104250Y-106299000D01*
X41263000Y-106140250D01*
X41266072Y-105901000D01*
X41257588Y-105814860D01*
X41302276Y-105790974D01*
X41418001Y-105696001D01*
X41441803Y-105666998D01*
X42022594Y-105086208D01*
X42051591Y-105062411D01*
X42146564Y-104946686D01*
X42217136Y-104814657D01*
X42260593Y-104671396D01*
X42271590Y-104559743D01*
X42271590Y-104559742D01*
X42275267Y-104522410D01*
X42271590Y-104485077D01*
X42271590Y-95709211D01*
X43219000Y-94761801D01*
X43219000Y-94869002D01*
X43383844Y-94869002D01*
X43262524Y-95098890D01*
X43307175Y-95246099D01*
X43432359Y-95508920D01*
X43606412Y-95742269D01*
X43690466Y-95818034D01*
X43609820Y-95842498D01*
X43499506Y-95901463D01*
X43402815Y-95980815D01*
X43323463Y-96077506D01*
X43264498Y-96187820D01*
X43228188Y-96307518D01*
X43215928Y-96432000D01*
X43215928Y-98132000D01*
X43228188Y-98256482D01*
X43264498Y-98376180D01*
X43323463Y-98486494D01*
X43402815Y-98583185D01*
X43499506Y-98662537D01*
X43609820Y-98721502D01*
X43729518Y-98757812D01*
X43854000Y-98770072D01*
X43944000Y-98770072D01*
X43944001Y-121605197D01*
X40032930Y-125516269D01*
X39775184Y-125465000D01*
X39472816Y-125465000D01*
X39176257Y-125523989D01*
X39158999Y-125531138D01*
X39158999Y-122071142D01*
X39228665Y-122085000D01*
X39511335Y-122085000D01*
X39788574Y-122029853D01*
X40049727Y-121921680D01*
X40284759Y-121764637D01*
X40484637Y-121564759D01*
X40641680Y-121329727D01*
X40749853Y-121068574D01*
X40805000Y-120791335D01*
X40805000Y-120508665D01*
X40749853Y-120231426D01*
X40641680Y-119970273D01*
X40484637Y-119735241D01*
X40284759Y-119535363D01*
X40049727Y-119378320D01*
X39788574Y-119270147D01*
X39511335Y-119215000D01*
X39228665Y-119215000D01*
X38951426Y-119270147D01*
X38690273Y-119378320D01*
X38455241Y-119535363D01*
X38255363Y-119735241D01*
X38098320Y-119970273D01*
X37990147Y-120231426D01*
X37935000Y-120508665D01*
X37935000Y-120791335D01*
X37971312Y-120973887D01*
X37888001Y-121057197D01*
X37858998Y-121081000D01*
X37803870Y-121148175D01*
X37764025Y-121196725D01*
X37754549Y-121214454D01*
X37693453Y-121328755D01*
X37649996Y-121472016D01*
X37638999Y-121583669D01*
X37638999Y-121583679D01*
X37635323Y-121621001D01*
X31140000Y-121621001D01*
X31140000Y-71780000D01*
X75540001Y-71780000D01*
X75540000Y-136500000D01*
%TA.AperFunction,Conductor*%
D21*
G36*
X75540000Y-136500000D02*
G01*
X31140000Y-136500000D01*
X31140000Y-121621001D01*
X37635323Y-121621001D01*
X37638999Y-121658324D01*
X37639000Y-128277667D01*
X37635323Y-128314999D01*
X37649997Y-128463984D01*
X37693453Y-128607245D01*
X37764025Y-128739275D01*
X37804670Y-128788800D01*
X37858999Y-128855000D01*
X37887997Y-128878798D01*
X38085928Y-129076729D01*
X38085928Y-130440000D01*
X38098188Y-130564482D01*
X38134498Y-130684180D01*
X38193463Y-130794494D01*
X38272815Y-130891185D01*
X38369506Y-130970537D01*
X38479820Y-131029502D01*
X38599518Y-131065812D01*
X38724000Y-131078072D01*
X40524000Y-131078072D01*
X40648482Y-131065812D01*
X40768180Y-131029502D01*
X40878494Y-130970537D01*
X40975185Y-130891185D01*
X41054537Y-130794494D01*
X41113502Y-130684180D01*
X41149812Y-130564482D01*
X41162072Y-130440000D01*
X41162072Y-128640000D01*
X41149812Y-128515518D01*
X41113502Y-128395820D01*
X41054537Y-128285506D01*
X40975185Y-128188815D01*
X40878494Y-128109463D01*
X40768180Y-128050498D01*
X40749873Y-128044944D01*
X40816312Y-127978505D01*
X40984299Y-127727095D01*
X41100011Y-127447743D01*
X41159000Y-127151184D01*
X41159000Y-126848816D01*
X41107731Y-126591070D01*
X45018802Y-122680000D01*
X45659199Y-122680000D01*
X49570269Y-126591070D01*
X49519000Y-126848816D01*
X49519000Y-127151184D01*
X49577989Y-127447743D01*
X49693701Y-127727095D01*
X49861688Y-127978505D01*
X49928127Y-128044944D01*
X49909820Y-128050498D01*
X49799506Y-128109463D01*
X49702815Y-128188815D01*
X49623463Y-128285506D01*
X49564498Y-128395820D01*
X49528188Y-128515518D01*
X49515928Y-128640000D01*
X49515928Y-130440000D01*
X49528188Y-130564482D01*
X49564498Y-130684180D01*
X49623463Y-130794494D01*
X49702815Y-130891185D01*
X49799506Y-130970537D01*
X49909820Y-131029502D01*
X50029518Y-131065812D01*
X50154000Y-131078072D01*
X51954000Y-131078072D01*
X52078482Y-131065812D01*
X52198180Y-131029502D01*
X52308494Y-130970537D01*
X52405185Y-130891185D01*
X52484537Y-130794494D01*
X52543502Y-130684180D01*
X52579812Y-130564482D01*
X52592072Y-130440000D01*
X52592072Y-129076731D01*
X52683802Y-128985001D01*
X60945928Y-128985001D01*
X60945928Y-130440000D01*
X60958188Y-130564482D01*
X60994498Y-130684180D01*
X61053463Y-130794494D01*
X61132815Y-130891185D01*
X61229506Y-130970537D01*
X61339820Y-131029502D01*
X61459518Y-131065812D01*
X61584000Y-131078072D01*
X63384000Y-131078072D01*
X63508482Y-131065812D01*
X63628180Y-131029502D01*
X63738494Y-130970537D01*
X63835185Y-130891185D01*
X63914537Y-130794494D01*
X63973502Y-130684180D01*
X64009812Y-130564482D01*
X64022072Y-130440000D01*
X64022072Y-129076730D01*
X64670014Y-128428788D01*
X64699011Y-128404991D01*
X64793984Y-128289266D01*
X64864556Y-128157237D01*
X64908013Y-128013976D01*
X64919010Y-127902323D01*
X64919010Y-127902313D01*
X64922686Y-127864990D01*
X64919010Y-127827667D01*
X64919010Y-122616332D01*
X64922686Y-122579009D01*
X64919010Y-122541686D01*
X64919010Y-122541677D01*
X64908013Y-122430024D01*
X64864556Y-122286763D01*
X64824726Y-122212247D01*
X64793984Y-122154733D01*
X64722809Y-122068007D01*
X64699011Y-122039009D01*
X64670013Y-122015211D01*
X63628688Y-120973886D01*
X63665000Y-120791335D01*
X63665000Y-120508665D01*
X63609853Y-120231426D01*
X63501680Y-119970273D01*
X63344637Y-119735241D01*
X63144759Y-119535363D01*
X62909727Y-119378320D01*
X62648574Y-119270147D01*
X62371335Y-119215000D01*
X62088665Y-119215000D01*
X61811426Y-119270147D01*
X61550273Y-119378320D01*
X61315241Y-119535363D01*
X61115363Y-119735241D01*
X60958320Y-119970273D01*
X60850147Y-120231426D01*
X60795000Y-120508665D01*
X60795000Y-120791335D01*
X60850147Y-121068574D01*
X60958320Y-121329727D01*
X61115363Y-121564759D01*
X61315241Y-121764637D01*
X61550273Y-121921680D01*
X61811426Y-122029853D01*
X62088665Y-122085000D01*
X62371335Y-122085000D01*
X62553886Y-122048688D01*
X63399011Y-122893813D01*
X63399011Y-125027207D01*
X58510806Y-120139003D01*
X58487003Y-120109999D01*
X58371278Y-120015026D01*
X58239249Y-119944454D01*
X58095988Y-119900997D01*
X57984335Y-119890000D01*
X57984324Y-119890000D01*
X57947002Y-119886324D01*
X57909680Y-119890000D01*
X52018043Y-119890000D01*
X51914637Y-119735241D01*
X51714759Y-119535363D01*
X51479727Y-119378320D01*
X51218574Y-119270147D01*
X50941335Y-119215000D01*
X50658665Y-119215000D01*
X50381426Y-119270147D01*
X50120273Y-119378320D01*
X49885241Y-119535363D01*
X49685363Y-119735241D01*
X49528320Y-119970273D01*
X49420147Y-120231426D01*
X49365000Y-120508665D01*
X49365000Y-120791335D01*
X49420147Y-121068574D01*
X49528320Y-121329727D01*
X49685363Y-121564759D01*
X49885241Y-121764637D01*
X50120273Y-121921680D01*
X50381426Y-122029853D01*
X50658665Y-122085000D01*
X50941335Y-122085000D01*
X51218574Y-122029853D01*
X51479727Y-121921680D01*
X51714759Y-121764637D01*
X51914637Y-121564759D01*
X52018043Y-121410000D01*
X57632201Y-121410000D01*
X61831148Y-125608948D01*
X61756905Y-125639701D01*
X61505495Y-125807688D01*
X61291688Y-126021495D01*
X61145687Y-126240000D01*
X52392313Y-126240000D01*
X52246312Y-126021495D01*
X52032505Y-125807688D01*
X51781095Y-125639701D01*
X51501743Y-125523989D01*
X51205184Y-125465000D01*
X50902816Y-125465000D01*
X50645070Y-125516269D01*
X46537804Y-121409003D01*
X46514001Y-121379999D01*
X46398276Y-121285026D01*
X46266247Y-121214454D01*
X46122986Y-121170997D01*
X46011333Y-121160000D01*
X46011322Y-121160000D01*
X45974000Y-121156324D01*
X45936678Y-121160000D01*
X45464000Y-121160000D01*
X45464000Y-107205000D01*
X49665928Y-107205000D01*
X49678188Y-107329482D01*
X49714498Y-107449180D01*
X49773463Y-107559494D01*
X49852815Y-107656185D01*
X49949506Y-107735537D01*
X50059820Y-107794502D01*
X50179518Y-107830812D01*
X50304000Y-107843072D01*
X50768250Y-107840000D01*
X50927000Y-107681250D01*
X50927000Y-106807000D01*
X49827750Y-106807000D01*
X49669000Y-106965750D01*
X49665928Y-107205000D01*
X45464000Y-107205000D01*
X45464000Y-98770072D01*
X45554000Y-98770072D01*
X45569011Y-98768594D01*
X45569011Y-100804784D01*
X45565335Y-100842106D01*
X45569011Y-100879428D01*
X45569011Y-100879438D01*
X45580008Y-100991091D01*
X45623465Y-101134352D01*
X45694037Y-101266382D01*
X45733882Y-101314932D01*
X45789010Y-101382107D01*
X45818014Y-101405910D01*
X49677619Y-105265515D01*
X49663388Y-105410000D01*
X49685785Y-105637400D01*
X49749093Y-105846098D01*
X49714498Y-105910820D01*
X49678188Y-106030518D01*
X49665928Y-106155000D01*
X49669000Y-106394250D01*
X49827750Y-106553000D01*
X50600891Y-106553000D01*
X50601600Y-106553215D01*
X50772021Y-106570000D01*
X51201000Y-106570000D01*
X51201000Y-106807000D01*
X51181000Y-106807000D01*
X51181000Y-107681250D01*
X51339750Y-107840000D01*
X51369010Y-107840194D01*
X51369011Y-111386187D01*
X51123886Y-111631312D01*
X50941335Y-111595000D01*
X50658665Y-111595000D01*
X50381426Y-111650147D01*
X50120273Y-111758320D01*
X49885241Y-111915363D01*
X49685363Y-112115241D01*
X49528320Y-112350273D01*
X49420147Y-112611426D01*
X49365000Y-112888665D01*
X49365000Y-113171335D01*
X49420147Y-113448574D01*
X49528320Y-113709727D01*
X49685363Y-113944759D01*
X49885241Y-114144637D01*
X50120273Y-114301680D01*
X50381426Y-114409853D01*
X50658665Y-114465000D01*
X50941335Y-114465000D01*
X51218574Y-114409853D01*
X51479727Y-114301680D01*
X51714759Y-114144637D01*
X51914637Y-113944759D01*
X52071680Y-113709727D01*
X52179853Y-113448574D01*
X52235000Y-113171335D01*
X52235000Y-112888665D01*
X52198688Y-112706114D01*
X52640013Y-112264789D01*
X52669011Y-112240991D01*
X52695342Y-112208907D01*
X52763984Y-112125267D01*
X52834556Y-111993237D01*
X52858178Y-111915363D01*
X52878013Y-111849976D01*
X52889010Y-111738323D01*
X52889010Y-111738313D01*
X52892686Y-111700990D01*
X52889010Y-111663667D01*
X52889010Y-107205000D01*
X61095928Y-107205000D01*
X61108188Y-107329482D01*
X61144498Y-107449180D01*
X61203463Y-107559494D01*
X61282815Y-107656185D01*
X61379506Y-107735537D01*
X61489820Y-107794502D01*
X61609518Y-107830812D01*
X61734000Y-107843072D01*
X62198250Y-107840000D01*
X62357000Y-107681250D01*
X62357000Y-106807000D01*
X61257750Y-106807000D01*
X61099000Y-106965750D01*
X61095928Y-107205000D01*
X52889010Y-107205000D01*
X52889010Y-104252332D01*
X52892686Y-104215009D01*
X52889010Y-104177687D01*
X52889010Y-104177677D01*
X52878013Y-104066024D01*
X52834556Y-103922763D01*
X52763984Y-103790734D01*
X52669011Y-103675009D01*
X52640008Y-103651207D01*
X52617804Y-103629003D01*
X52594001Y-103599999D01*
X52478276Y-103505026D01*
X52346247Y-103434454D01*
X52202986Y-103390997D01*
X52161588Y-103386920D01*
X52103212Y-103315788D01*
X51926579Y-103170829D01*
X51725060Y-103063115D01*
X51506400Y-102996785D01*
X51335979Y-102980000D01*
X50772021Y-102980000D01*
X50601600Y-102996785D01*
X50382940Y-103063115D01*
X50181421Y-103170829D01*
X50004788Y-103315788D01*
X49947410Y-103385703D01*
X47089011Y-100527305D01*
X47089011Y-95424000D01*
X54475452Y-95424000D01*
X54505572Y-95729813D01*
X54594774Y-96023875D01*
X54739631Y-96294883D01*
X54934576Y-96532424D01*
X55172117Y-96727369D01*
X55443125Y-96872226D01*
X55737187Y-96961428D01*
X55966364Y-96984000D01*
X57317636Y-96984000D01*
X57546813Y-96961428D01*
X57840875Y-96872226D01*
X58111883Y-96727369D01*
X58349424Y-96532424D01*
X58544369Y-96294883D01*
X58689226Y-96023875D01*
X58778428Y-95729813D01*
X58808548Y-95424000D01*
X58778428Y-95118187D01*
X58689226Y-94824125D01*
X58544369Y-94553117D01*
X58349424Y-94315576D01*
X58111883Y-94120631D01*
X57840875Y-93975774D01*
X57546813Y-93886572D01*
X57317636Y-93864000D01*
X55966364Y-93864000D01*
X55737187Y-93886572D01*
X55443125Y-93975774D01*
X55172117Y-94120631D01*
X54934576Y-94315576D01*
X54739631Y-94553117D01*
X54594774Y-94824125D01*
X54505572Y-95118187D01*
X54475452Y-95424000D01*
X47089011Y-95424000D01*
X47089011Y-91324344D01*
X47092688Y-91287011D01*
X47078014Y-91138025D01*
X47034557Y-90994764D01*
X46963985Y-90862735D01*
X46892810Y-90776008D01*
X46869012Y-90747010D01*
X46840014Y-90723212D01*
X46145210Y-90028408D01*
X46189000Y-89808260D01*
X46189000Y-89515740D01*
X46131932Y-89228842D01*
X46019990Y-88958589D01*
X45857475Y-88715368D01*
X45650632Y-88508525D01*
X45476240Y-88392000D01*
X45650632Y-88275475D01*
X45857475Y-88068632D01*
X45982178Y-87882000D01*
X55391980Y-87882000D01*
X56373980Y-88864000D01*
X55966364Y-88864000D01*
X55737187Y-88886572D01*
X55443125Y-88975774D01*
X55172117Y-89120631D01*
X54934576Y-89315576D01*
X54739631Y-89553117D01*
X54594774Y-89824125D01*
X54505572Y-90118187D01*
X54475452Y-90424000D01*
X54505572Y-90729813D01*
X54594774Y-91023875D01*
X54739631Y-91294883D01*
X54934576Y-91532424D01*
X55172117Y-91727369D01*
X55443125Y-91872226D01*
X55737187Y-91961428D01*
X55966364Y-91984000D01*
X57317636Y-91984000D01*
X57546813Y-91961428D01*
X57840875Y-91872226D01*
X58111883Y-91727369D01*
X58349424Y-91532424D01*
X58544369Y-91294883D01*
X58635106Y-91125126D01*
X60648990Y-93139011D01*
X60648991Y-104454753D01*
X60645314Y-104492085D01*
X60648991Y-104529418D01*
X60659988Y-104641071D01*
X60669187Y-104671395D01*
X60703444Y-104784331D01*
X60774016Y-104916361D01*
X60845191Y-105003087D01*
X60868990Y-105032086D01*
X60897988Y-105055884D01*
X61107619Y-105265515D01*
X61093388Y-105410000D01*
X61115785Y-105637400D01*
X61179093Y-105846098D01*
X61144498Y-105910820D01*
X61108188Y-106030518D01*
X61095928Y-106155000D01*
X61099000Y-106394250D01*
X61257750Y-106553000D01*
X62030891Y-106553000D01*
X62031600Y-106553215D01*
X62202021Y-106570000D01*
X62631000Y-106570000D01*
X62631000Y-106807000D01*
X62611000Y-106807000D01*
X62611000Y-107681250D01*
X62769750Y-107840000D01*
X62799001Y-107840194D01*
X62799002Y-111386196D01*
X62553886Y-111631312D01*
X62371335Y-111595000D01*
X62088665Y-111595000D01*
X61811426Y-111650147D01*
X61550273Y-111758320D01*
X61315241Y-111915363D01*
X61115363Y-112115241D01*
X60958320Y-112350273D01*
X60850147Y-112611426D01*
X60795000Y-112888665D01*
X60795000Y-113171335D01*
X60850147Y-113448574D01*
X60958320Y-113709727D01*
X61115363Y-113944759D01*
X61315241Y-114144637D01*
X61550273Y-114301680D01*
X61811426Y-114409853D01*
X62088665Y-114465000D01*
X62371335Y-114465000D01*
X62648574Y-114409853D01*
X62909727Y-114301680D01*
X63144759Y-114144637D01*
X63344637Y-113944759D01*
X63501680Y-113709727D01*
X63609853Y-113448574D01*
X63665000Y-113171335D01*
X63665000Y-112888665D01*
X63628688Y-112706114D01*
X64070004Y-112264798D01*
X64099002Y-112241000D01*
X64193975Y-112125275D01*
X64264547Y-111993246D01*
X64308004Y-111849985D01*
X64319001Y-111738332D01*
X64319001Y-111738323D01*
X64322677Y-111701000D01*
X64319001Y-111663677D01*
X64319001Y-104252323D01*
X64322677Y-104215000D01*
X64319001Y-104177677D01*
X64319001Y-104177668D01*
X64308004Y-104066015D01*
X64264547Y-103922754D01*
X64193975Y-103790725D01*
X64099002Y-103675000D01*
X64070003Y-103651201D01*
X64047802Y-103629000D01*
X64024001Y-103599999D01*
X63908276Y-103505026D01*
X63776247Y-103434454D01*
X63632986Y-103390997D01*
X63591588Y-103386920D01*
X63533212Y-103315788D01*
X63356579Y-103170829D01*
X63155060Y-103063115D01*
X62936400Y-102996785D01*
X62765979Y-102980000D01*
X62202021Y-102980000D01*
X62168990Y-102983253D01*
X62168990Y-95792664D01*
X67027188Y-95792664D01*
X67053147Y-95903655D01*
X67175350Y-96185094D01*
X67350111Y-96437285D01*
X67570714Y-96650536D01*
X67828681Y-96816652D01*
X68114099Y-96929249D01*
X68416000Y-96984000D01*
X69015000Y-96984000D01*
X69015000Y-95551000D01*
X69269000Y-95551000D01*
X69269000Y-96984000D01*
X69868000Y-96984000D01*
X70169901Y-96929249D01*
X70455319Y-96816652D01*
X70713286Y-96650536D01*
X70933889Y-96437285D01*
X71108650Y-96185094D01*
X71230853Y-95903655D01*
X71256812Y-95792664D01*
X71136483Y-95551000D01*
X69269000Y-95551000D01*
X69015000Y-95551000D01*
X67147517Y-95551000D01*
X67027188Y-95792664D01*
X62168990Y-95792664D01*
X62168990Y-95055336D01*
X67027188Y-95055336D01*
X67147517Y-95297000D01*
X69015000Y-95297000D01*
X69015000Y-93864000D01*
X69269000Y-93864000D01*
X69269000Y-95297000D01*
X71136483Y-95297000D01*
X71256812Y-95055336D01*
X71230853Y-94944345D01*
X71108650Y-94662906D01*
X70933889Y-94410715D01*
X70713286Y-94197464D01*
X70455319Y-94031348D01*
X70169901Y-93918751D01*
X69868000Y-93864000D01*
X69269000Y-93864000D01*
X69015000Y-93864000D01*
X68416000Y-93864000D01*
X68114099Y-93918751D01*
X67828681Y-94031348D01*
X67570714Y-94197464D01*
X67350111Y-94410715D01*
X67175350Y-94662906D01*
X67053147Y-94944345D01*
X67027188Y-95055336D01*
X62168990Y-95055336D01*
X62168990Y-92861531D01*
X62172666Y-92824208D01*
X62168990Y-92786885D01*
X62168990Y-92786876D01*
X62157993Y-92675223D01*
X62114536Y-92531962D01*
X62043964Y-92399933D01*
X61948991Y-92284208D01*
X61919994Y-92260411D01*
X56270585Y-86611003D01*
X56246782Y-86581999D01*
X56131057Y-86487026D01*
X55999028Y-86416454D01*
X55855767Y-86372997D01*
X55744114Y-86362000D01*
X55744103Y-86362000D01*
X55706781Y-86358324D01*
X55669459Y-86362000D01*
X45982178Y-86362000D01*
X45857475Y-86175368D01*
X45650632Y-85968525D01*
X45476240Y-85852000D01*
X45650632Y-85735475D01*
X45857475Y-85528632D01*
X45982178Y-85342000D01*
X61992678Y-85342000D01*
X62030000Y-85345676D01*
X62067322Y-85342000D01*
X62067333Y-85342000D01*
X62178986Y-85331003D01*
X62322247Y-85287546D01*
X62454276Y-85216974D01*
X62570001Y-85122001D01*
X62593804Y-85092997D01*
X64848137Y-82838664D01*
X67027188Y-82838664D01*
X67053147Y-82949655D01*
X67175350Y-83231094D01*
X67350111Y-83483285D01*
X67570714Y-83696536D01*
X67828681Y-83862652D01*
X68114099Y-83975249D01*
X68416000Y-84030000D01*
X69015000Y-84030000D01*
X69015000Y-82597000D01*
X67147517Y-82597000D01*
X67027188Y-82838664D01*
X64848137Y-82838664D01*
X65585465Y-82101336D01*
X67027188Y-82101336D01*
X67147517Y-82343000D01*
X69015000Y-82343000D01*
X69015000Y-80910000D01*
X68416000Y-80910000D01*
X68114099Y-80964751D01*
X67828681Y-81077348D01*
X67570714Y-81243464D01*
X67350111Y-81456715D01*
X67175350Y-81708906D01*
X67053147Y-81990345D01*
X67027188Y-82101336D01*
X65585465Y-82101336D01*
X68656802Y-79030000D01*
X69817636Y-79030000D01*
X70046813Y-79007428D01*
X70231010Y-78951553D01*
X70231010Y-80988859D01*
X70169901Y-80964751D01*
X69868000Y-80910000D01*
X69269000Y-80910000D01*
X69269000Y-82343000D01*
X69289000Y-82343000D01*
X69289000Y-82597000D01*
X69269000Y-82597000D01*
X69269000Y-84030000D01*
X69868000Y-84030000D01*
X70169901Y-83975249D01*
X70231011Y-83951141D01*
X70231011Y-88260187D01*
X69627198Y-88864000D01*
X68466364Y-88864000D01*
X68237187Y-88886572D01*
X67943125Y-88975774D01*
X67672117Y-89120631D01*
X67434576Y-89315576D01*
X67239631Y-89553117D01*
X67094774Y-89824125D01*
X67005572Y-90118187D01*
X66975452Y-90424000D01*
X67005572Y-90729813D01*
X67094774Y-91023875D01*
X67239631Y-91294883D01*
X67434576Y-91532424D01*
X67672117Y-91727369D01*
X67943125Y-91872226D01*
X68237187Y-91961428D01*
X68466364Y-91984000D01*
X69817636Y-91984000D01*
X70046813Y-91961428D01*
X70340875Y-91872226D01*
X70611883Y-91727369D01*
X70849424Y-91532424D01*
X71044369Y-91294883D01*
X71189226Y-91023875D01*
X71278428Y-90729813D01*
X71308548Y-90424000D01*
X71278428Y-90118187D01*
X71189226Y-89824125D01*
X71059457Y-89581345D01*
X71502013Y-89138789D01*
X71531011Y-89114991D01*
X71557342Y-89082907D01*
X71625984Y-88999267D01*
X71696556Y-88867237D01*
X71697538Y-88864000D01*
X71740013Y-88723976D01*
X71751010Y-88612323D01*
X71751010Y-88612313D01*
X71754686Y-88574991D01*
X71751010Y-88537668D01*
X71751010Y-76989551D01*
X71754686Y-76952228D01*
X71751010Y-76914905D01*
X71751010Y-76914896D01*
X71740013Y-76803243D01*
X71696556Y-76659982D01*
X71625984Y-76527953D01*
X71531011Y-76412228D01*
X71502014Y-76388431D01*
X70822574Y-75708992D01*
X70798772Y-75679989D01*
X70683047Y-75585016D01*
X70551018Y-75514444D01*
X70407757Y-75470987D01*
X70296104Y-75459990D01*
X70296093Y-75459990D01*
X70258771Y-75456314D01*
X70221449Y-75459990D01*
X50563343Y-75459990D01*
X50526010Y-75456313D01*
X50488677Y-75459990D01*
X50377024Y-75470987D01*
X50233763Y-75514444D01*
X50101734Y-75585016D01*
X49986009Y-75679989D01*
X49962211Y-75708987D01*
X45070408Y-80600791D01*
X44850260Y-80557000D01*
X44557740Y-80557000D01*
X44270842Y-80614068D01*
X44000589Y-80726010D01*
X43757368Y-80888525D01*
X43550525Y-81095368D01*
X43388010Y-81338589D01*
X43276068Y-81608842D01*
X43219000Y-81895740D01*
X43219000Y-82188260D01*
X43276068Y-82475158D01*
X43388010Y-82745411D01*
X43550525Y-82988632D01*
X43757368Y-83195475D01*
X43931760Y-83312000D01*
X43757368Y-83428525D01*
X43550525Y-83635368D01*
X43388010Y-83878589D01*
X43276068Y-84148842D01*
X43219000Y-84435740D01*
X43219000Y-84728260D01*
X43276068Y-85015158D01*
X43388010Y-85285411D01*
X43550525Y-85528632D01*
X43757368Y-85735475D01*
X43931760Y-85852000D01*
X43757368Y-85968525D01*
X43550525Y-86175368D01*
X43388010Y-86418589D01*
X43276068Y-86688842D01*
X43219000Y-86975740D01*
X43219000Y-87268260D01*
X43276068Y-87555158D01*
X43388010Y-87825411D01*
X43550525Y-88068632D01*
X43757368Y-88275475D01*
X43931760Y-88392000D01*
X43757368Y-88508525D01*
X43550525Y-88715368D01*
X43388010Y-88958589D01*
X43276068Y-89228842D01*
X43219000Y-89515740D01*
X43219000Y-89808260D01*
X43276068Y-90095158D01*
X43388010Y-90365411D01*
X43550525Y-90608632D01*
X43757368Y-90815475D01*
X43931760Y-90932000D01*
X43757368Y-91048525D01*
X43550525Y-91255368D01*
X43388010Y-91498589D01*
X43276068Y-91768842D01*
X43219000Y-92055740D01*
X43219000Y-92348260D01*
X43262790Y-92568408D01*
X41000588Y-94830611D01*
X40971590Y-94854409D01*
X40947792Y-94883407D01*
X40947791Y-94883408D01*
X40876616Y-94970134D01*
X40806044Y-95102164D01*
X40762588Y-95245425D01*
X40747914Y-95394410D01*
X40751591Y-95431742D01*
X40751590Y-102917659D01*
X40750579Y-102916829D01*
X40549060Y-102809115D01*
X40330400Y-102742785D01*
X40159979Y-102726000D01*
X39596021Y-102726000D01*
X39425600Y-102742785D01*
X39206940Y-102809115D01*
X39005421Y-102916829D01*
X38828788Y-103061788D01*
X38683829Y-103238421D01*
X38576115Y-103439940D01*
X38509785Y-103658600D01*
X38487388Y-103886000D01*
X38501619Y-104030485D01*
X38058999Y-104473105D01*
X38030001Y-104496903D01*
X38006203Y-104525901D01*
X38006202Y-104525902D01*
X37935027Y-104612628D01*
X37864455Y-104744658D01*
X37820999Y-104887919D01*
X37806325Y-105036904D01*
X37810002Y-105074236D01*
X37810001Y-112192678D01*
X37806325Y-112230001D01*
X37810001Y-112267323D01*
X37810001Y-112267333D01*
X37820998Y-112378986D01*
X37863469Y-112518996D01*
X37864455Y-112522247D01*
X37935027Y-112654277D01*
X37972533Y-112699977D01*
X37935000Y-112888665D01*
X37935000Y-113171335D01*
X37990147Y-113448574D01*
X38098320Y-113709727D01*
X38255363Y-113944759D01*
X38455241Y-114144637D01*
X38690273Y-114301680D01*
X38951426Y-114409853D01*
X39228665Y-114465000D01*
X39511335Y-114465000D01*
X39788574Y-114409853D01*
X40049727Y-114301680D01*
X40284759Y-114144637D01*
X40484637Y-113944759D01*
X40641680Y-113709727D01*
X40749853Y-113448574D01*
X40805000Y-113171335D01*
X40805000Y-112888665D01*
X40749853Y-112611426D01*
X40641680Y-112350273D01*
X40484637Y-112115241D01*
X40284759Y-111915363D01*
X40049727Y-111758320D01*
X39788574Y-111650147D01*
X39511335Y-111595000D01*
X39330001Y-111595000D01*
X39330001Y-107587735D01*
X39592250Y-107586000D01*
X39751000Y-107427250D01*
X39751000Y-106553000D01*
X40005000Y-106553000D01*
X40005000Y-107427250D01*
X40163750Y-107586000D01*
X40628000Y-107589072D01*
X40752482Y-107576812D01*
X40872180Y-107540502D01*
X40982494Y-107481537D01*
X41079185Y-107402185D01*
X41158537Y-107305494D01*
X41217502Y-107195180D01*
X41253812Y-107075482D01*
X41266072Y-106951000D01*
X41263000Y-106711750D01*
X41104250Y-106553000D01*
X40005000Y-106553000D01*
X39751000Y-106553000D01*
X39731000Y-106553000D01*
X39731000Y-106316000D01*
X40159979Y-106316000D01*
X40330400Y-106299215D01*
X40331109Y-106299000D01*
X41104250Y-106299000D01*
X41263000Y-106140250D01*
X41266072Y-105901000D01*
X41257588Y-105814860D01*
X41302276Y-105790974D01*
X41418001Y-105696001D01*
X41441803Y-105666998D01*
X42022594Y-105086208D01*
X42051591Y-105062411D01*
X42146564Y-104946686D01*
X42217136Y-104814657D01*
X42260593Y-104671396D01*
X42271590Y-104559743D01*
X42271590Y-104559742D01*
X42275267Y-104522410D01*
X42271590Y-104485077D01*
X42271590Y-95709211D01*
X43219000Y-94761801D01*
X43219000Y-94869002D01*
X43383844Y-94869002D01*
X43262524Y-95098890D01*
X43307175Y-95246099D01*
X43432359Y-95508920D01*
X43606412Y-95742269D01*
X43690466Y-95818034D01*
X43609820Y-95842498D01*
X43499506Y-95901463D01*
X43402815Y-95980815D01*
X43323463Y-96077506D01*
X43264498Y-96187820D01*
X43228188Y-96307518D01*
X43215928Y-96432000D01*
X43215928Y-98132000D01*
X43228188Y-98256482D01*
X43264498Y-98376180D01*
X43323463Y-98486494D01*
X43402815Y-98583185D01*
X43499506Y-98662537D01*
X43609820Y-98721502D01*
X43729518Y-98757812D01*
X43854000Y-98770072D01*
X43944000Y-98770072D01*
X43944001Y-121605197D01*
X40032930Y-125516269D01*
X39775184Y-125465000D01*
X39472816Y-125465000D01*
X39176257Y-125523989D01*
X39158999Y-125531138D01*
X39158999Y-122071142D01*
X39228665Y-122085000D01*
X39511335Y-122085000D01*
X39788574Y-122029853D01*
X40049727Y-121921680D01*
X40284759Y-121764637D01*
X40484637Y-121564759D01*
X40641680Y-121329727D01*
X40749853Y-121068574D01*
X40805000Y-120791335D01*
X40805000Y-120508665D01*
X40749853Y-120231426D01*
X40641680Y-119970273D01*
X40484637Y-119735241D01*
X40284759Y-119535363D01*
X40049727Y-119378320D01*
X39788574Y-119270147D01*
X39511335Y-119215000D01*
X39228665Y-119215000D01*
X38951426Y-119270147D01*
X38690273Y-119378320D01*
X38455241Y-119535363D01*
X38255363Y-119735241D01*
X38098320Y-119970273D01*
X37990147Y-120231426D01*
X37935000Y-120508665D01*
X37935000Y-120791335D01*
X37971312Y-120973887D01*
X37888001Y-121057197D01*
X37858998Y-121081000D01*
X37803870Y-121148175D01*
X37764025Y-121196725D01*
X37754549Y-121214454D01*
X37693453Y-121328755D01*
X37649996Y-121472016D01*
X37638999Y-121583669D01*
X37638999Y-121583679D01*
X37635323Y-121621001D01*
X31140000Y-121621001D01*
X31140000Y-71780000D01*
X75540001Y-71780000D01*
X75540000Y-136500000D01*
G37*
%TD.AperFunction*%
D20*
X44831000Y-94615000D02*
X44851000Y-94615000D01*
X44851000Y-94869000D01*
X44831000Y-94869000D01*
X44831000Y-94889000D01*
X44577000Y-94889000D01*
X44577000Y-94869000D01*
X44557000Y-94869000D01*
X44557000Y-94615000D01*
X44577000Y-94615000D01*
X44577000Y-94595000D01*
X44831000Y-94595000D01*
X44831000Y-94615000D01*
%TA.AperFunction,Conductor*%
D21*
G36*
X44831000Y-94615000D02*
G01*
X44851000Y-94615000D01*
X44851000Y-94869000D01*
X44831000Y-94869000D01*
X44831000Y-94889000D01*
X44577000Y-94889000D01*
X44577000Y-94869000D01*
X44557000Y-94869000D01*
X44557000Y-94615000D01*
X44577000Y-94615000D01*
X44577000Y-94595000D01*
X44831000Y-94595000D01*
X44831000Y-94615000D01*
G37*
%TD.AperFunction*%
%TD*%
M02*
