M48
; DRILL file {KiCad (5.1.10)-1} date 10/31/21 23:55:23
; FORMAT={-:-/ absolute / inch / decimal}
; #@! TF.CreationDate,2021-10-31T23:55:23-05:00
; #@! TF.GenerationSoftware,Kicad,Pcbnew,(5.1.10)-1
; #@! TF.FileFunction,Plated,1,2,PTH
FMAT,2
INCH
T1C0.0295
T2C0.0315
T3C0.0354
T4C0.0394
T5C0.0512
%
G90
G05
T1
X1.57Y-4.09
X1.57Y-4.14
X1.57Y-4.19
X2.01Y-4.1
X2.01Y-4.15
X2.01Y-4.2
X2.46Y-4.1
X2.46Y-4.15
X2.46Y-4.2
T2
X1.55Y-4.45
X1.55Y-4.75
X2.0Y-4.45
X2.0Y-4.75
X2.45Y-4.45
X2.45Y-4.75
T3
X1.56Y-5.0
X1.56Y-5.1
X2.01Y-5.0
X2.01Y-5.1
X2.46Y-5.0
X2.46Y-5.1
T4
X1.76Y-3.23
X1.76Y-3.33
X1.76Y-3.43
X1.76Y-3.53
X1.76Y-3.63
X1.76Y-3.73
X1.76Y-3.83
T5
X2.23Y-3.05
X2.23Y-3.2469
X2.23Y-3.56
X2.23Y-3.7569
X2.7221Y-3.05
X2.7221Y-3.2469
X2.7221Y-3.56
X2.7221Y-3.7569
T0
M30
