%TF.GenerationSoftware,KiCad,Pcbnew,(5.1.10)-1*%
%TF.CreationDate,2021-10-31T23:54:57-05:00*%
%TF.ProjectId,File1,46696c65-312e-46b6-9963-61645f706362,rev?*%
%TF.SameCoordinates,Original*%
%TF.FileFunction,Legend,Top*%
%TF.FilePolarity,Positive*%
%FSLAX46Y46*%
G04 Gerber Fmt 4.6, Leading zero omitted, Abs format (unit mm)*
G04 Created by KiCad (PCBNEW (5.1.10)-1) date 2021-10-31 23:54:57*
%MOMM*%
%LPD*%
G01*
G04 APERTURE LIST*
%ADD10C,0.120000*%
%ADD11C,0.150000*%
G04 APERTURE END LIST*
D10*
%TO.C,Q1*%
X41728000Y-106956000D02*
X41728000Y-103356000D01*
X41716478Y-106994478D02*
G75*
G02*
X37278000Y-105156000I-1838478J1838478D01*
G01*
X41716478Y-103317522D02*
G75*
G03*
X37278000Y-105156000I-1838478J-1838478D01*
G01*
%TO.C,D1*%
X42124000Y-128270000D02*
G75*
G03*
X42124000Y-128270000I-2500000J0D01*
G01*
X38079000Y-130830000D02*
X41169000Y-130830000D01*
X39624462Y-125280000D02*
G75*
G03*
X38079170Y-130830000I-462J-2990000D01*
G01*
X39623538Y-125280000D02*
G75*
G02*
X41168830Y-130830000I462J-2990000D01*
G01*
%TO.C,D2*%
X49509000Y-130830000D02*
X52599000Y-130830000D01*
X53554000Y-128270000D02*
G75*
G03*
X53554000Y-128270000I-2500000J0D01*
G01*
X51053538Y-125280000D02*
G75*
G02*
X52598830Y-130830000I462J-2990000D01*
G01*
X51054462Y-125280000D02*
G75*
G03*
X49509170Y-130830000I-462J-2990000D01*
G01*
%TO.C,D3*%
X64984000Y-128270000D02*
G75*
G03*
X64984000Y-128270000I-2500000J0D01*
G01*
X60939000Y-130830000D02*
X64029000Y-130830000D01*
X62484462Y-125280000D02*
G75*
G03*
X60939170Y-130830000I-462J-2990000D01*
G01*
X62483538Y-125280000D02*
G75*
G02*
X64028830Y-130830000I462J-2990000D01*
G01*
%TO.C,J1*%
X46034000Y-98612000D02*
X44704000Y-98612000D01*
X46034000Y-97282000D02*
X46034000Y-98612000D01*
X46034000Y-96012000D02*
X43374000Y-96012000D01*
X43374000Y-96012000D02*
X43374000Y-80712000D01*
X46034000Y-96012000D02*
X46034000Y-80712000D01*
X46034000Y-80712000D02*
X43374000Y-80712000D01*
%TO.C,Q2*%
X52904000Y-107210000D02*
X52904000Y-103610000D01*
X52892478Y-103571522D02*
G75*
G03*
X48454000Y-105410000I-1838478J-1838478D01*
G01*
X52892478Y-107248478D02*
G75*
G02*
X48454000Y-105410000I-1838478J1838478D01*
G01*
%TO.C,Q3*%
X64334000Y-107210000D02*
X64334000Y-103610000D01*
X64322478Y-107248478D02*
G75*
G02*
X59884000Y-105410000I-1838478J1838478D01*
G01*
X64322478Y-103571522D02*
G75*
G03*
X59884000Y-105410000I-1838478J-1838478D01*
G01*
%TO.C,R1*%
X38330000Y-120110000D02*
X38000000Y-120110000D01*
X38000000Y-120110000D02*
X38000000Y-113570000D01*
X38000000Y-113570000D02*
X38330000Y-113570000D01*
X40410000Y-120110000D02*
X40740000Y-120110000D01*
X40740000Y-120110000D02*
X40740000Y-113570000D01*
X40740000Y-113570000D02*
X40410000Y-113570000D01*
%TO.C,R2*%
X52170000Y-113570000D02*
X51840000Y-113570000D01*
X52170000Y-120110000D02*
X52170000Y-113570000D01*
X51840000Y-120110000D02*
X52170000Y-120110000D01*
X49430000Y-113570000D02*
X49760000Y-113570000D01*
X49430000Y-120110000D02*
X49430000Y-113570000D01*
X49760000Y-120110000D02*
X49430000Y-120110000D01*
%TO.C,R3*%
X61190000Y-120110000D02*
X60860000Y-120110000D01*
X60860000Y-120110000D02*
X60860000Y-113570000D01*
X60860000Y-113570000D02*
X61190000Y-113570000D01*
X63270000Y-120110000D02*
X63600000Y-120110000D01*
X63600000Y-120110000D02*
X63600000Y-113570000D01*
X63600000Y-113570000D02*
X63270000Y-113570000D01*
%TO.C,SW1*%
X56742000Y-73820000D02*
X69042000Y-73820000D01*
X69042000Y-78400000D02*
X69042000Y-81540000D01*
X69042000Y-86120000D02*
X56742000Y-86120000D01*
X56742000Y-76540000D02*
X56742000Y-73820000D01*
X67571050Y-80010000D02*
G75*
G03*
X67571050Y-80010000I-4579050J0D01*
G01*
X56742000Y-86120000D02*
X56742000Y-83400000D01*
X56742000Y-81540000D02*
X56742000Y-78400000D01*
X69042000Y-83400000D02*
X69042000Y-86120000D01*
X69042000Y-73820000D02*
X69042000Y-76540000D01*
%TO.C,SW2*%
X69042000Y-86774000D02*
X69042000Y-89494000D01*
X69042000Y-96354000D02*
X69042000Y-99074000D01*
X56742000Y-94494000D02*
X56742000Y-91354000D01*
X56742000Y-99074000D02*
X56742000Y-96354000D01*
X67571050Y-92964000D02*
G75*
G03*
X67571050Y-92964000I-4579050J0D01*
G01*
X56742000Y-89494000D02*
X56742000Y-86774000D01*
X69042000Y-99074000D02*
X56742000Y-99074000D01*
X69042000Y-91354000D02*
X69042000Y-94494000D01*
X56742000Y-86774000D02*
X69042000Y-86774000D01*
%TO.C,Q1*%
D11*
X36865619Y-105251238D02*
X36818000Y-105346476D01*
X36722761Y-105441714D01*
X36579904Y-105584571D01*
X36532285Y-105679809D01*
X36532285Y-105775047D01*
X36770380Y-105727428D02*
X36722761Y-105822666D01*
X36627523Y-105917904D01*
X36437047Y-105965523D01*
X36103714Y-105965523D01*
X35913238Y-105917904D01*
X35818000Y-105822666D01*
X35770380Y-105727428D01*
X35770380Y-105536952D01*
X35818000Y-105441714D01*
X35913238Y-105346476D01*
X36103714Y-105298857D01*
X36437047Y-105298857D01*
X36627523Y-105346476D01*
X36722761Y-105441714D01*
X36770380Y-105536952D01*
X36770380Y-105727428D01*
X36770380Y-104346476D02*
X36770380Y-104917904D01*
X36770380Y-104632190D02*
X35770380Y-104632190D01*
X35913238Y-104727428D01*
X36008476Y-104822666D01*
X36056095Y-104917904D01*
%TO.C,D1*%
X36116380Y-129008095D02*
X35116380Y-129008095D01*
X35116380Y-128770000D01*
X35164000Y-128627142D01*
X35259238Y-128531904D01*
X35354476Y-128484285D01*
X35544952Y-128436666D01*
X35687809Y-128436666D01*
X35878285Y-128484285D01*
X35973523Y-128531904D01*
X36068761Y-128627142D01*
X36116380Y-128770000D01*
X36116380Y-129008095D01*
X36116380Y-127484285D02*
X36116380Y-128055714D01*
X36116380Y-127770000D02*
X35116380Y-127770000D01*
X35259238Y-127865238D01*
X35354476Y-127960476D01*
X35402095Y-128055714D01*
%TO.C,D2*%
X47546380Y-129008095D02*
X46546380Y-129008095D01*
X46546380Y-128770000D01*
X46594000Y-128627142D01*
X46689238Y-128531904D01*
X46784476Y-128484285D01*
X46974952Y-128436666D01*
X47117809Y-128436666D01*
X47308285Y-128484285D01*
X47403523Y-128531904D01*
X47498761Y-128627142D01*
X47546380Y-128770000D01*
X47546380Y-129008095D01*
X46641619Y-128055714D02*
X46594000Y-128008095D01*
X46546380Y-127912857D01*
X46546380Y-127674761D01*
X46594000Y-127579523D01*
X46641619Y-127531904D01*
X46736857Y-127484285D01*
X46832095Y-127484285D01*
X46974952Y-127531904D01*
X47546380Y-128103333D01*
X47546380Y-127484285D01*
%TO.C,D3*%
X58976380Y-129008095D02*
X57976380Y-129008095D01*
X57976380Y-128770000D01*
X58024000Y-128627142D01*
X58119238Y-128531904D01*
X58214476Y-128484285D01*
X58404952Y-128436666D01*
X58547809Y-128436666D01*
X58738285Y-128484285D01*
X58833523Y-128531904D01*
X58928761Y-128627142D01*
X58976380Y-128770000D01*
X58976380Y-129008095D01*
X57976380Y-128103333D02*
X57976380Y-127484285D01*
X58357333Y-127817619D01*
X58357333Y-127674761D01*
X58404952Y-127579523D01*
X58452571Y-127531904D01*
X58547809Y-127484285D01*
X58785904Y-127484285D01*
X58881142Y-127531904D01*
X58928761Y-127579523D01*
X58976380Y-127674761D01*
X58976380Y-127960476D01*
X58928761Y-128055714D01*
X58881142Y-128103333D01*
%TO.C,J1*%
X44370666Y-99064380D02*
X44370666Y-99778666D01*
X44323047Y-99921523D01*
X44227809Y-100016761D01*
X44084952Y-100064380D01*
X43989714Y-100064380D01*
X45370666Y-100064380D02*
X44799238Y-100064380D01*
X45084952Y-100064380D02*
X45084952Y-99064380D01*
X44989714Y-99207238D01*
X44894476Y-99302476D01*
X44799238Y-99350095D01*
%TO.C,Q2*%
X48041619Y-105505238D02*
X47994000Y-105600476D01*
X47898761Y-105695714D01*
X47755904Y-105838571D01*
X47708285Y-105933809D01*
X47708285Y-106029047D01*
X47946380Y-105981428D02*
X47898761Y-106076666D01*
X47803523Y-106171904D01*
X47613047Y-106219523D01*
X47279714Y-106219523D01*
X47089238Y-106171904D01*
X46994000Y-106076666D01*
X46946380Y-105981428D01*
X46946380Y-105790952D01*
X46994000Y-105695714D01*
X47089238Y-105600476D01*
X47279714Y-105552857D01*
X47613047Y-105552857D01*
X47803523Y-105600476D01*
X47898761Y-105695714D01*
X47946380Y-105790952D01*
X47946380Y-105981428D01*
X47041619Y-105171904D02*
X46994000Y-105124285D01*
X46946380Y-105029047D01*
X46946380Y-104790952D01*
X46994000Y-104695714D01*
X47041619Y-104648095D01*
X47136857Y-104600476D01*
X47232095Y-104600476D01*
X47374952Y-104648095D01*
X47946380Y-105219523D01*
X47946380Y-104600476D01*
%TO.C,Q3*%
X59471619Y-105505238D02*
X59424000Y-105600476D01*
X59328761Y-105695714D01*
X59185904Y-105838571D01*
X59138285Y-105933809D01*
X59138285Y-106029047D01*
X59376380Y-105981428D02*
X59328761Y-106076666D01*
X59233523Y-106171904D01*
X59043047Y-106219523D01*
X58709714Y-106219523D01*
X58519238Y-106171904D01*
X58424000Y-106076666D01*
X58376380Y-105981428D01*
X58376380Y-105790952D01*
X58424000Y-105695714D01*
X58519238Y-105600476D01*
X58709714Y-105552857D01*
X59043047Y-105552857D01*
X59233523Y-105600476D01*
X59328761Y-105695714D01*
X59376380Y-105790952D01*
X59376380Y-105981428D01*
X58376380Y-105219523D02*
X58376380Y-104600476D01*
X58757333Y-104933809D01*
X58757333Y-104790952D01*
X58804952Y-104695714D01*
X58852571Y-104648095D01*
X58947809Y-104600476D01*
X59185904Y-104600476D01*
X59281142Y-104648095D01*
X59328761Y-104695714D01*
X59376380Y-104790952D01*
X59376380Y-105076666D01*
X59328761Y-105171904D01*
X59281142Y-105219523D01*
%TO.C,R1*%
X37452380Y-117006666D02*
X36976190Y-117340000D01*
X37452380Y-117578095D02*
X36452380Y-117578095D01*
X36452380Y-117197142D01*
X36500000Y-117101904D01*
X36547619Y-117054285D01*
X36642857Y-117006666D01*
X36785714Y-117006666D01*
X36880952Y-117054285D01*
X36928571Y-117101904D01*
X36976190Y-117197142D01*
X36976190Y-117578095D01*
X37452380Y-116054285D02*
X37452380Y-116625714D01*
X37452380Y-116340000D02*
X36452380Y-116340000D01*
X36595238Y-116435238D01*
X36690476Y-116530476D01*
X36738095Y-116625714D01*
%TO.C,R2*%
X48882380Y-117006666D02*
X48406190Y-117340000D01*
X48882380Y-117578095D02*
X47882380Y-117578095D01*
X47882380Y-117197142D01*
X47930000Y-117101904D01*
X47977619Y-117054285D01*
X48072857Y-117006666D01*
X48215714Y-117006666D01*
X48310952Y-117054285D01*
X48358571Y-117101904D01*
X48406190Y-117197142D01*
X48406190Y-117578095D01*
X47977619Y-116625714D02*
X47930000Y-116578095D01*
X47882380Y-116482857D01*
X47882380Y-116244761D01*
X47930000Y-116149523D01*
X47977619Y-116101904D01*
X48072857Y-116054285D01*
X48168095Y-116054285D01*
X48310952Y-116101904D01*
X48882380Y-116673333D01*
X48882380Y-116054285D01*
%TO.C,R3*%
X60312380Y-117006666D02*
X59836190Y-117340000D01*
X60312380Y-117578095D02*
X59312380Y-117578095D01*
X59312380Y-117197142D01*
X59360000Y-117101904D01*
X59407619Y-117054285D01*
X59502857Y-117006666D01*
X59645714Y-117006666D01*
X59740952Y-117054285D01*
X59788571Y-117101904D01*
X59836190Y-117197142D01*
X59836190Y-117578095D01*
X59312380Y-116673333D02*
X59312380Y-116054285D01*
X59693333Y-116387619D01*
X59693333Y-116244761D01*
X59740952Y-116149523D01*
X59788571Y-116101904D01*
X59883809Y-116054285D01*
X60121904Y-116054285D01*
X60217142Y-116101904D01*
X60264761Y-116149523D01*
X60312380Y-116244761D01*
X60312380Y-116530476D01*
X60264761Y-116625714D01*
X60217142Y-116673333D01*
%TO.C,SW1*%
X61388666Y-73214761D02*
X61531523Y-73262380D01*
X61769619Y-73262380D01*
X61864857Y-73214761D01*
X61912476Y-73167142D01*
X61960095Y-73071904D01*
X61960095Y-72976666D01*
X61912476Y-72881428D01*
X61864857Y-72833809D01*
X61769619Y-72786190D01*
X61579142Y-72738571D01*
X61483904Y-72690952D01*
X61436285Y-72643333D01*
X61388666Y-72548095D01*
X61388666Y-72452857D01*
X61436285Y-72357619D01*
X61483904Y-72310000D01*
X61579142Y-72262380D01*
X61817238Y-72262380D01*
X61960095Y-72310000D01*
X62293428Y-72262380D02*
X62531523Y-73262380D01*
X62722000Y-72548095D01*
X62912476Y-73262380D01*
X63150571Y-72262380D01*
X64055333Y-73262380D02*
X63483904Y-73262380D01*
X63769619Y-73262380D02*
X63769619Y-72262380D01*
X63674380Y-72405238D01*
X63579142Y-72500476D01*
X63483904Y-72548095D01*
%TO.C,SW2*%
X61388666Y-86168761D02*
X61531523Y-86216380D01*
X61769619Y-86216380D01*
X61864857Y-86168761D01*
X61912476Y-86121142D01*
X61960095Y-86025904D01*
X61960095Y-85930666D01*
X61912476Y-85835428D01*
X61864857Y-85787809D01*
X61769619Y-85740190D01*
X61579142Y-85692571D01*
X61483904Y-85644952D01*
X61436285Y-85597333D01*
X61388666Y-85502095D01*
X61388666Y-85406857D01*
X61436285Y-85311619D01*
X61483904Y-85264000D01*
X61579142Y-85216380D01*
X61817238Y-85216380D01*
X61960095Y-85264000D01*
X62293428Y-85216380D02*
X62531523Y-86216380D01*
X62722000Y-85502095D01*
X62912476Y-86216380D01*
X63150571Y-85216380D01*
X63483904Y-85311619D02*
X63531523Y-85264000D01*
X63626761Y-85216380D01*
X63864857Y-85216380D01*
X63960095Y-85264000D01*
X64007714Y-85311619D01*
X64055333Y-85406857D01*
X64055333Y-85502095D01*
X64007714Y-85644952D01*
X63436285Y-86216380D01*
X64055333Y-86216380D01*
%TD*%
M02*
